<svg width="42" height="42" viewBox="0 0 42 42" fill="none" xmlns="http://www.w3.org/2000/svg">
<path d="M34.3011 29.3568H13.5536C11.4486 29.3568 9.69165 27.8465 9.3754 25.7655L6.76512 8.58756C6.72502 8.32201 6.80247 8.05186 6.97765 7.84809C7.15284 7.64432 7.40824 7.52722 7.67701 7.52722H38.9767C39.8089 7.52722 40.5862 7.89834 41.1103 8.54514C41.6336 9.19195 41.8346 10.0296 41.6612 10.8433L38.4346 26.0103C38.0224 27.9493 36.2835 29.3568 34.3011 29.3568ZM8.7498 9.37128L11.1992 25.4884C11.3771 26.6612 12.3674 27.5127 13.5536 27.5127H34.3011C35.4186 27.5127 36.3983 26.7193 36.6311 25.6267L39.8577 10.4593C39.9145 10.1919 39.8485 9.91713 39.6766 9.70506C39.5046 9.49299 39.2497 9.37082 38.9763 9.37082L8.7498 9.37128Z" fill="black"/>
<path d="M7.67612 9.3713C7.22063 9.3713 6.82416 9.03384 6.7633 8.57006L6.48762 6.48119C6.35899 5.50569 5.51995 4.7699 4.53614 4.7699H1.15274C0.643783 4.7699 0.230713 4.35683 0.230713 3.84787C0.230713 3.33891 0.643783 2.92584 1.15274 2.92584H4.53614C6.44152 2.92584 8.0666 4.35038 8.31601 6.23962L8.59169 8.32848C8.65854 8.8333 8.3031 9.29662 7.79829 9.36346C7.75679 9.36854 7.71622 9.3713 7.67612 9.3713Z" fill="black"/>
<path d="M13.6831 39.0271C11.4887 39.0271 9.70361 37.2415 9.70361 35.0471C9.70361 32.8527 11.4891 31.0676 13.6831 31.0676C15.8775 31.0676 17.663 32.8527 17.663 35.0471C17.663 37.2415 15.8775 39.0271 13.6831 39.0271ZM13.6831 32.9122C12.5057 32.9122 11.5477 33.8701 11.5477 35.0476C11.5477 36.2255 12.5057 37.1835 13.6831 37.1835C14.861 37.1835 15.819 36.2255 15.819 35.0476C15.819 33.8701 14.8605 32.9122 13.6831 32.9122Z" fill="black"/>
<path d="M33.1191 39.0271C30.9247 39.0271 29.1392 37.2415 29.1392 35.0471C29.1392 32.8527 30.9247 31.0676 33.1191 31.0676C35.3135 31.0676 37.0986 32.8527 37.0986 35.0471C37.0986 37.2415 35.3135 39.0271 33.1191 39.0271ZM33.1191 32.9122C31.9412 32.9122 30.9832 33.8701 30.9832 35.0476C30.9832 36.2255 31.9412 37.1835 33.1191 37.1835C34.2965 37.1835 35.2545 36.2255 35.2545 35.0476C35.2545 33.8701 34.2965 32.9122 33.1191 32.9122Z" fill="black"/>
</svg>
