<svg width="49" height="49" viewBox="0 0 49 49" fill="none" xmlns="http://www.w3.org/2000/svg">
<path d="M3.37919 40.1908C4.67491 40.1908 5.7253 39.1404 5.7253 37.8446C5.7253 36.5489 4.67491 35.4985 3.37919 35.4985C2.08347 35.4985 1.03308 36.5489 1.03308 37.8446C1.03308 39.1404 2.08347 40.1908 3.37919 40.1908Z" fill="black"/>
<path d="M25.5978 33.7312C26.8935 33.7312 27.9439 32.6808 27.9439 31.385C27.9439 30.0893 26.8935 29.0389 25.5978 29.0389C24.3021 29.0389 23.2517 30.0893 23.2517 31.385C23.2517 32.6808 24.3021 33.7312 25.5978 33.7312Z" fill="black"/>
<path d="M16.8523 25.7602C18.1481 25.7602 19.1984 24.7098 19.1984 23.414C19.1984 22.1183 18.1481 21.0679 16.8523 21.0679C15.5566 21.0679 14.5062 22.1183 14.5062 23.414C14.5062 24.7098 15.5566 25.7602 16.8523 25.7602Z" fill="black"/>
<path d="M14.3088 25.2949L5.33042 34.7719C5.28094 35.2936 5.5192 35.6889 6.35234 35.7362L15.3302 26.2593C15.2586 25.5601 14.8294 25.3406 14.3088 25.2949Z" fill="black"/>
<path d="M23.6169 28.7108L19.8971 25.1551C19.2624 25.1497 18.9666 25.5332 18.929 26.1732L22.6869 29.7655C23.4711 29.7521 23.7632 29.3745 23.6169 28.7108Z" fill="black"/>
<path d="M3.60235 35.6895C4.66569 35.6895 5.53055 36.5543 5.53055 37.6177C5.53055 38.681 4.66569 39.5459 3.60235 39.5459C2.53902 39.5459 1.67416 38.681 1.67416 37.6177C1.67416 36.5543 2.53902 35.6895 3.60235 35.6895ZM3.60235 34.2846C1.76129 34.2846 0.269287 35.7771 0.269287 37.6177C0.269287 39.4582 1.76129 40.9507 3.60235 40.9507C5.44342 40.9507 6.93542 39.4587 6.93542 37.6177C6.93542 35.7766 5.44288 34.2846 3.60235 34.2846Z" fill="black"/>
<path d="M17.0589 21.4853C18.1222 21.4853 18.9871 22.3502 18.9871 23.4135C18.9871 24.4768 18.1222 25.3417 17.0589 25.3417C15.9956 25.3417 15.1307 24.4768 15.1307 23.4135C15.1307 22.3502 15.9956 21.4853 17.0589 21.4853ZM17.0589 20.0804C15.2184 20.0804 13.7258 21.5724 13.7258 23.4135C13.7258 25.2546 15.2178 26.7466 17.0589 26.7466C18.9 26.7466 20.392 25.2546 20.392 23.4135C20.392 21.5724 18.9 20.0804 17.0589 20.0804Z" fill="black"/>
<path d="M25.5961 29.4595C26.6595 29.4595 27.5243 30.3244 27.5243 31.3877C27.5243 32.451 26.6595 33.3159 25.5961 33.3159C24.5328 33.3159 23.6679 32.451 23.6679 31.3877C23.6679 30.3244 24.5333 29.4595 25.5961 29.4595ZM25.5961 28.0546C23.7556 28.0546 22.2631 29.5466 22.2631 31.3877C22.2631 33.2288 23.7551 34.7208 25.5961 34.7208C27.4372 34.7208 28.9292 33.2288 28.9292 31.3877C28.9292 29.5466 27.4372 28.0546 25.5961 28.0546Z" fill="black"/>
<path d="M45.3428 8.86141C46.4062 8.86141 47.271 9.72628 47.271 10.7896C47.271 11.8529 46.4062 12.7178 45.3428 12.7178C44.2795 12.7178 43.4146 11.8529 43.4146 10.7896C43.4146 9.72628 44.2795 8.86141 45.3428 8.86141ZM45.3428 7.45654C43.5023 7.45654 42.0098 8.94854 42.0098 10.7896C42.0098 12.6307 43.5018 14.1227 45.3428 14.1227C47.1834 14.1227 48.6759 12.6307 48.6759 10.7896C48.6759 8.94854 47.1839 7.45654 45.3428 7.45654Z" fill="black"/>
<path d="M43.9471 13.1917C43.8756 12.4925 43.4464 12.273 42.9252 12.2273L33.9474 21.7042L27.2161 28.8098C27.1667 29.3315 27.4055 29.7268 28.2381 29.7742L37.2159 20.2972L43.9471 13.1917Z" fill="black"/>
<path d="M45.3423 13.1368C46.638 13.1368 47.6884 12.0864 47.6884 10.7907C47.6884 9.49497 46.638 8.44458 45.3423 8.44458C44.0466 8.44458 42.9962 9.49497 42.9962 10.7907C42.9962 12.0864 44.0466 13.1368 45.3423 13.1368Z" fill="black"/>
</svg>
