<svg width="52" height="52" viewBox="0 0 52 32"  xmlns="http://www.w3.org/2000/svg">
<path d="M5.1436 31.1698C4.34279 31.1698 3.59678 30.8507 3.04312 30.2725C2.48947 29.6932 2.20465 28.934 2.24004 28.1338L2.91812 12.9744L1.50601 11.4972C0.677236 10.6308 0.23431 9.44641 0.290247 8.24891L0.612738 1.31677C0.627578 1.0017 0.911827 0.768821 1.2092 0.772817C1.52428 0.787657 1.76743 1.05478 1.75316 1.36928L1.43067 8.30142C1.38957 9.18899 1.7172 10.0663 2.33136 10.7084L3.91185 12.362C4.01973 12.4744 4.07681 12.6262 4.06939 12.7815L3.38103 28.1852C3.35934 28.6709 3.53286 29.1321 3.86905 29.4831C4.54143 30.1869 5.74749 30.1863 6.41987 29.4831C6.75549 29.1315 6.929 28.6703 6.90731 28.1852L6.21895 12.7821C6.2121 12.6268 6.26861 12.475 6.37649 12.3625L7.95698 10.709C8.57057 10.0668 8.89877 9.18956 8.85767 8.30199L8.53518 1.36985C8.52091 1.05478 8.76407 0.787658 9.07914 0.773388C9.38565 0.75969 9.66133 1.0017 9.6756 1.31734L9.9981 8.24948C10.0535 9.44755 9.60996 10.6314 8.78176 11.4978L7.36965 12.975L8.04716 28.1344C8.08312 28.934 7.79773 29.6937 7.24465 30.2725C6.69099 30.8513 5.94441 31.1698 5.1436 31.1698Z" fill="black"/>
<path d="M3.74803 9.63918C3.43296 9.63918 3.17725 9.38347 3.17725 9.0684V1.34288C3.17725 1.0278 3.43296 0.772095 3.74803 0.772095C4.0631 0.772095 4.31881 1.0278 4.31881 1.34288V9.06783C4.31881 9.38347 4.0631 9.63918 3.74803 9.63918Z" fill="black"/>
<path d="M6.53917 9.63918C6.22409 9.63918 5.96838 9.38347 5.96838 9.0684V1.34288C5.96838 1.0278 6.22409 0.772095 6.53917 0.772095C6.85424 0.772095 7.10995 1.0278 7.10995 1.34288V9.06783C7.10995 9.38347 6.85481 9.63918 6.53917 9.63918Z" fill="black"/>
<path d="M46.8945 31.1696C46.0943 31.1696 45.3483 30.8505 44.794 30.2723C44.2404 29.6936 43.955 28.9338 43.9909 28.1342L44.6102 14.2808L43.9162 13.5844C42.3637 12.0267 41.766 9.74304 42.3574 7.6243L43.564 3.30006C43.9795 1.81204 45.3488 0.772644 46.8939 0.772644C48.439 0.772644 49.8089 1.81204 50.2239 3.30006L51.4305 7.62373C52.0218 9.74247 51.4242 12.0267 49.8717 13.5844L49.1776 14.2808L49.7969 28.1336C49.8329 28.9338 49.5469 29.6936 48.9938 30.2723C48.4408 30.8511 47.6947 31.1696 46.8945 31.1696ZM46.8945 1.91364C45.8591 1.91364 44.9424 2.60999 44.6639 3.60657L43.4573 7.93024C42.9767 9.65343 43.4624 11.5108 44.725 12.7773L45.596 13.6518C45.709 13.7653 45.7695 13.9206 45.7621 14.0798L45.1314 28.1838C45.1097 28.6696 45.2832 29.1308 45.6194 29.4818C46.2918 30.185 47.4978 30.185 48.1702 29.4818C48.5064 29.1308 48.6799 28.669 48.6582 28.1833L48.0275 14.0798C48.0201 13.92 48.0806 13.7648 48.1936 13.6518L49.0646 12.7773C50.3272 11.5108 50.8129 9.65343 50.3323 7.92967L49.1257 3.606C48.8466 2.60999 47.9293 1.91364 46.8945 1.91364Z" fill="black"/>
<path d="M25.9709 31.1696C17.5901 31.1696 10.7721 24.3511 10.7721 15.9709C10.7721 7.59065 17.5901 0.772095 25.9709 0.772095C34.3516 0.772095 41.1696 7.59008 41.1696 15.9709C41.1696 24.3516 34.3516 31.1696 25.9709 31.1696ZM25.9709 1.91366C18.2196 1.91366 11.9137 8.21965 11.9137 15.9709C11.9137 23.7221 18.2196 30.0281 25.9709 30.0281C33.7221 30.0281 40.0281 23.7221 40.0281 15.9709C40.0281 8.21965 33.7221 1.91366 25.9709 1.91366Z" fill="black"/>
<path d="M25.9708 26.5303C20.1483 26.5303 15.4114 21.7934 15.4114 15.9708C15.4114 10.1483 20.1483 5.41138 25.9708 5.41138C31.7934 5.41138 36.5303 10.1483 36.5303 15.9708C36.5303 21.7934 31.7934 26.5303 25.9708 26.5303ZM25.9708 6.55294C20.7779 6.55294 16.5529 10.7779 16.5529 15.9708C16.5529 21.1638 20.7779 25.3887 25.9708 25.3887C31.1638 25.3887 35.3887 21.1638 35.3887 15.9708C35.3887 10.7779 31.1638 6.55294 25.9708 6.55294Z" fill="black"/>
<path d="M20.263 16.5416C19.948 16.5416 19.6923 16.2859 19.6923 15.9709C19.6923 12.5085 22.5091 9.69226 25.9709 9.69226C26.2859 9.69226 26.5416 9.94797 26.5416 10.263C26.5416 10.5781 26.2859 10.8338 25.9709 10.8338C23.1386 10.8338 20.8338 13.1386 20.8338 15.9709C20.8338 16.2859 20.5781 16.5416 20.263 16.5416Z" fill="black"/>
</svg>
