<svg width="35" height="35" viewBox="0 0 35 35" fill="none" xmlns="http://www.w3.org/2000/svg">
<path d="M31.0793 34.7685H25.4783C25.3304 34.7685 25.1959 34.6836 25.1321 34.5507C24.685 33.6183 23.7672 33.0393 22.7379 33.0393C21.7087 33.0393 20.7909 33.6186 20.3433 34.5507C20.2792 34.6836 20.1447 34.7685 19.9968 34.7685H14.9641C14.8162 34.7685 14.6817 34.6836 14.6179 34.5507C14.1704 33.6183 13.2529 33.0393 12.2233 33.0393C11.1937 33.0393 10.2763 33.6183 9.82874 34.5507C9.76496 34.6836 9.63011 34.7685 9.48221 34.7685H3.88125C3.66918 34.7685 3.49707 34.5968 3.49707 34.3843V0.576501C3.49707 0.364434 3.66918 0.192322 3.88125 0.192322H31.0793C31.2917 0.192322 31.4634 0.364434 31.4634 0.576501V34.3843C31.4634 34.5968 31.2917 34.7685 31.0793 34.7685ZM25.7103 34.0001H30.6955V0.960681H4.26543V34.0001H9.25055C9.8564 32.9421 10.9974 32.2709 12.2233 32.2709C13.4492 32.2709 14.5903 32.9421 15.1961 34.0001H19.7652C20.3714 32.9421 21.5128 32.2709 22.7379 32.2709C23.9635 32.2709 25.1045 32.9421 25.7103 34.0001Z" fill="black"/>
<path d="M25.7995 8.42723H9.1614C8.94933 8.42723 8.77722 8.25512 8.77722 8.04305C8.77722 7.83099 8.94933 7.65887 9.1614 7.65887H25.7995C26.0119 7.65887 26.1836 7.83099 26.1836 8.04305C26.1836 8.25512 26.0119 8.42723 25.7995 8.42723Z" fill="black"/>
<path d="M25.7995 13.6847H9.1614C8.94933 13.6847 8.77722 13.5126 8.77722 13.3006C8.77722 13.0885 8.94933 12.9164 9.1614 12.9164H25.7995C26.0119 12.9164 26.1836 13.0885 26.1836 13.3006C26.1836 13.5126 26.0119 13.6847 25.7995 13.6847Z" fill="black"/>
<path d="M25.7995 18.9418H9.1614C8.94933 18.9418 8.77722 18.7701 8.77722 18.5576C8.77722 18.3452 8.94933 18.1735 9.1614 18.1735H25.7995C26.0119 18.1735 26.1836 18.3452 26.1836 18.5576C26.1836 18.7701 26.0119 18.9418 25.7995 18.9418Z" fill="black"/>
<path d="M25.7994 24.199H19.1504C18.938 24.199 18.7662 24.0272 18.7662 23.8148C18.7662 23.6023 18.938 23.4306 19.1504 23.4306H25.7998C26.0122 23.4306 26.184 23.6023 26.184 23.8148C26.184 24.0272 26.0119 24.199 25.7994 24.199Z" fill="black"/>
</svg>
